<?xml version="1.0" encoding="UTF-8" standalone="no"?>
<!-- Created with Inkscape (http://www.inkscape.org/) -->

<svg
   xmlns:dc="http://purl.org/dc/elements/1.1/"
   xmlns:cc="http://creativecommons.org/ns#"
   xmlns:rdf="http://www.w3.org/1999/02/22-rdf-syntax-ns#"
   xmlns:svg="http://www.w3.org/2000/svg"
   xmlns="http://www.w3.org/2000/svg"
   xmlns:xlink="http://www.w3.org/1999/xlink"
   xmlns:sodipodi="http://sodipodi.sourceforge.net/DTD/sodipodi-0.dtd"
   xmlns:inkscape="http://www.inkscape.org/namespaces/inkscape"
   width="1188mm"
   height="841mm"
   viewBox="0 0 1188 841"
   version="1.1"
   id="svg8"
   inkscape:version="0.92.4 (5da689c313, 2019-01-14)"
   sodipodi:docname="cpuposter.svg">
  <defs
     id="defs2">
    <rect
       height="2017.008"
       width="5017.008"
       y="0.002"
       id="SVGID_1_" />
  </defs>
  <sodipodi:namedview
     id="base"
     pagecolor="#ffffff"
     bordercolor="#666666"
     borderopacity="1.0"
     inkscape:pageopacity="0.0"
     inkscape:pageshadow="2"
     inkscape:zoom="0.1767767"
     inkscape:cx="1462.5833"
     inkscape:cy="1307.0855"
     inkscape:document-units="mm"
     inkscape:current-layer="layer1"
     showgrid="false"
     fit-margin-top="0"
     fit-margin-left="0"
     fit-margin-right="0"
     fit-margin-bottom="0"
     inkscape:window-width="1920"
     inkscape:window-height="1031"
     inkscape:window-x="0"
     inkscape:window-y="25"
     inkscape:window-maximized="1" />
  <metadata
     id="metadata5">
    <rdf:RDF>
      <cc:Work
         rdf:about="">
        <dc:format>image/svg+xml</dc:format>
        <dc:type
           rdf:resource="http://purl.org/dc/dcmitype/StillImage" />
        <dc:title></dc:title>
      </cc:Work>
    </rdf:RDF>
  </metadata>
  <g
     inkscape:label="Layer 1"
     inkscape:groupmode="layer"
     id="layer1"
     transform="translate(-248.70833,28.059504)">
    <rect
       style="fill:#ffffff;fill-opacity:0.80392157;stroke-width:3;stroke-linecap:square;stroke-linejoin:bevel;stroke-opacity:0.99561397"
       id="rect10"
       width="1188"
       height="841"
       x="248.70833"
       y="-28.059504" />
    <g
       id="g369"
       transform="matrix(0.31815915,0,0,0.31815915,58.940919,-32.043466)">
	<defs
   id="defs216">
		<rect
   height="2017.0081"
   width="5017.0078"
   y="0.0020000001"
   id="rect379"
   x="0" />

	</defs>

	<clipPath
   id="SVGID_2_">
		<use
   id="use218"
   overflow="visible"
   xlink:href="#SVGID_1_"
   style="overflow:visible"
   x="0"
   y="0"
   width="100%"
   height="100%" />

	</clipPath>

	<path
   id="path221"
   d="m 1610.887,580.524 c -296.364,-82.532 -548.522,5.42 -653.75,273.197"
   stroke-miterlimit="10"
   clip-path="url(#SVGID_2_)"
   inkscape:connector-curvature="0"
   style="fill:none;stroke:#000000;stroke-width:70;stroke-miterlimit:10" />

	
		<line
   id="line223"
   y2="832.146"
   x2="801.92798"
   y1="832.146"
   x1="989.50403"
   stroke-miterlimit="10"
   clip-path="url(#SVGID_2_)"
   style="fill:none;stroke:#000000;stroke-width:70;stroke-miterlimit:10" />

	<path
   id="path225"
   d="m 831.863,813.577 c -111.963,225.255 -75.987,525.04 137.603,692.351"
   stroke-miterlimit="10"
   clip-path="url(#SVGID_2_)"
   inkscape:connector-curvature="0"
   style="fill:none;stroke:#000000;stroke-width:70;stroke-miterlimit:10" />

	<path
   id="path227"
   d="m 1670.608,593.842 c 0,18.211 -14.763,32.975 -32.975,32.975 -18.211,0 -32.974,-14.764 -32.974,-32.975 0,-18.211 14.763,-32.975 32.974,-32.975 18.213,0 32.975,14.764 32.975,32.975"
   clip-path="url(#SVGID_2_)"
   inkscape:connector-curvature="0" />

	
		<circle
   id="circle229"
   r="32.973999"
   cy="593.84198"
   cx="1637.634"
   stroke-miterlimit="10"
   clip-path="url(#SVGID_2_)"
   style="fill:none;stroke:#000000;stroke-width:70;stroke-miterlimit:10" />

	<path
   id="path231"
   d="m 1017.858,1521.497 c 0,18.211 -14.763,32.975 -32.975,32.975 -18.211,0 -32.974,-14.764 -32.974,-32.975 0,-18.211 14.763,-32.975 32.974,-32.975 18.213,0 32.975,14.764 32.975,32.975"
   clip-path="url(#SVGID_2_)"
   inkscape:connector-curvature="0" />

	
		<circle
   id="circle233"
   r="32.973999"
   cy="1521.4969"
   cx="984.88397"
   stroke-miterlimit="10"
   clip-path="url(#SVGID_2_)"
   style="fill:none;stroke:#000000;stroke-width:70;stroke-miterlimit:10" />

	<path
   id="path235"
   d="M 915.495,605.021 C 1075.144,416.399 1303.981,337.469 1615.838,435.006"
   stroke-miterlimit="10"
   clip-path="url(#SVGID_2_)"
   inkscape:connector-curvature="0"
   style="fill:none;stroke:#000000;stroke-width:70;stroke-miterlimit:10" />

	<path
   id="path237"
   d="m 1678.674,449.374 c 0,18.211 -14.763,32.975 -32.975,32.975 -18.211,0 -32.974,-14.764 -32.974,-32.975 0,-18.211 14.763,-32.975 32.974,-32.975 18.212,-10e-4 32.975,14.764 32.975,32.975"
   clip-path="url(#SVGID_2_)"
   inkscape:connector-curvature="0" />

	
		<circle
   id="circle239"
   r="32.974998"
   cy="449.37399"
   cx="1645.699"
   stroke-miterlimit="10"
   clip-path="url(#SVGID_2_)"
   style="fill:none;stroke:#000000;stroke-width:70;stroke-miterlimit:10" />

	<path
   id="path241"
   d="m 929.622,625.541 c 0,18.211 -14.763,32.975 -32.975,32.975 -18.211,0 -32.974,-14.764 -32.974,-32.975 0,-18.211 14.763,-32.975 32.974,-32.975 18.211,-10e-4 32.975,14.764 32.975,32.975"
   clip-path="url(#SVGID_2_)"
   inkscape:connector-curvature="0" />

	
		<circle
   id="circle243"
   r="32.974998"
   cy="625.54102"
   cx="896.64697"
   stroke-miterlimit="10"
   clip-path="url(#SVGID_2_)"
   style="fill:none;stroke:#000000;stroke-width:70;stroke-miterlimit:10" />

	<path
   id="path245"
   d="m 959.087,964.296 c -48.519,201.452 -20.818,368.21 170.417,510.41"
   stroke-miterlimit="10"
   clip-path="url(#SVGID_2_)"
   inkscape:connector-curvature="0"
   style="fill:none;stroke:#000000;stroke-width:70;stroke-miterlimit:10" />

	<path
   id="path247"
   d="m 1001.402,942.5 c 0,18.211 -14.763,32.975 -32.975,32.975 -18.211,0 -32.974,-14.764 -32.974,-32.975 0,-18.211 14.763,-32.975 32.974,-32.975 18.213,0 32.975,14.764 32.975,32.975"
   clip-path="url(#SVGID_2_)"
   inkscape:connector-curvature="0" />

	
		<circle
   id="circle249"
   r="32.973999"
   cy="942.5"
   cx="968.42798"
   stroke-miterlimit="10"
   clip-path="url(#SVGID_2_)"
   style="fill:none;stroke:#000000;stroke-width:70;stroke-miterlimit:10" />

	
		<line
   id="line251"
   y2="1672.2321"
   x2="1115.682"
   y1="1445.7939"
   x1="1115.682"
   stroke-miterlimit="10"
   clip-path="url(#SVGID_2_)"
   style="fill:none;stroke:#000000;stroke-width:70;stroke-miterlimit:10" />

	<path
   id="path253"
   d="m 1105.918,1646.345 c 102.363,86.07 392.325,75.691 508.082,-8.065"
   stroke-miterlimit="10"
   clip-path="url(#SVGID_2_)"
   inkscape:connector-curvature="0"
   style="fill:none;stroke:#000000;stroke-width:70;stroke-miterlimit:10" />

	<path
   id="path255"
   d="m 1679.95,1613.37 c 0,18.211 -14.763,32.975 -32.975,32.975 -18.211,0 -32.974,-14.764 -32.974,-32.975 0,-18.212 14.763,-32.976 32.974,-32.976 18.212,10e-4 32.975,14.764 32.975,32.976"
   clip-path="url(#SVGID_2_)"
   inkscape:connector-curvature="0" />

	
		<circle
   id="circle257"
   r="32.974998"
   cy="1613.37"
   cx="1646.975"
   stroke-miterlimit="10"
   clip-path="url(#SVGID_2_)"
   style="fill:none;stroke:#000000;stroke-width:70;stroke-miterlimit:10" />

	<path
   id="path259"
   d="m 1276.68,1534.75 c 97.401,15.373 242.213,-7.29 327.413,-57.044"
   stroke-miterlimit="10"
   clip-path="url(#SVGID_2_)"
   inkscape:connector-curvature="0"
   style="fill:none;stroke:#000000;stroke-width:70;stroke-miterlimit:10" />

	<path
   id="path261"
   d="m 1647.631,1459.738 c 0.821,18.193 -3.921,36.72 -22.114,37.541 -18.192,0.821 -33.606,-13.261 -34.427,-31.454 -0.821,-18.192 13.261,-33.606 31.454,-34.428 18.193,-0.822 24.266,10.148 25.087,28.341"
   clip-path="url(#SVGID_2_)"
   inkscape:connector-curvature="0" />

	<path
   id="path263"
   d="m 1647.631,1459.738 c 0.821,18.193 -3.921,36.72 -22.114,37.541 -18.192,0.821 -33.606,-13.261 -34.427,-31.454 -0.821,-18.192 13.261,-33.606 31.454,-34.428 18.193,-0.822 24.266,10.148 25.087,28.341 z"
   stroke-miterlimit="10"
   clip-path="url(#SVGID_2_)"
   inkscape:connector-curvature="0"
   style="fill:none;stroke:#000000;stroke-width:70;stroke-miterlimit:10" />

	<path
   id="path265"
   d="m 1266.782,1519.284 c 0.821,18.193 -13.262,33.607 -31.455,34.429 -18.192,0.82 -33.606,-13.263 -34.427,-31.455 -0.821,-18.193 13.261,-33.607 31.454,-34.429 18.193,-0.82 33.607,13.263 34.428,31.455"
   clip-path="url(#SVGID_2_)"
   inkscape:connector-curvature="0" />

	
		<circle
   id="circle267"
   r="32.974998"
   cy="1520.771"
   cx="1233.8409"
   stroke-miterlimit="10"
   clip-path="url(#SVGID_2_)"
   style="fill:none;stroke:#000000;stroke-width:70;stroke-miterlimit:10" />

	
		<line
   id="line269"
   y2="1047.63"
   x2="2123.502"
   y1="465.59399"
   x1="2123.502"
   stroke-miterlimit="10"
   clip-path="url(#SVGID_2_)"
   style="fill:none;stroke:#000000;stroke-width:70;stroke-miterlimit:10" />

	
		<line
   id="line271"
   y2="1035.175"
   x2="2321.438"
   y1="1035.175"
   x1="2088.5039"
   stroke-miterlimit="10"
   clip-path="url(#SVGID_2_)"
   style="fill:none;stroke:#000000;stroke-width:70;stroke-miterlimit:10" />

	
		<line
   id="line273"
   y2="1635.866"
   x2="2286.5769"
   y1="1025.834"
   x1="2286.5769"
   stroke-miterlimit="10"
   clip-path="url(#SVGID_2_)"
   style="fill:none;stroke:#000000;stroke-width:70;stroke-miterlimit:10" />

	<path
   id="path275"
   d="m 2156.477,440.685 c 0,18.211 -14.763,32.975 -32.975,32.975 -18.211,0 -32.975,-14.764 -32.975,-32.975 0,-18.211 14.764,-32.975 32.975,-32.975 18.212,0 32.975,14.764 32.975,32.975"
   clip-path="url(#SVGID_2_)"
   inkscape:connector-curvature="0" />

	
		<circle
   id="circle277"
   r="32.974998"
   cy="440.685"
   cx="2123.502"
   stroke-miterlimit="10"
   clip-path="url(#SVGID_2_)"
   style="fill:none;stroke:#000000;stroke-width:70;stroke-miterlimit:10" />

	<path
   id="path279"
   d="m 2319.552,1654.548 c 0,18.211 -14.763,32.975 -32.975,32.975 -18.211,0 -32.975,-14.764 -32.975,-32.975 0,-18.211 14.764,-32.976 32.975,-32.976 18.212,0 32.975,14.765 32.975,32.976"
   clip-path="url(#SVGID_2_)"
   inkscape:connector-curvature="0" />

	
		<circle
   id="circle281"
   r="32.974998"
   cy="1654.548"
   cx="2286.5769"
   stroke-miterlimit="10"
   clip-path="url(#SVGID_2_)"
   style="fill:none;stroke:#000000;stroke-width:70;stroke-miterlimit:10" />

	
		<line
   id="line283"
   y2="1629.9871"
   x2="2123.502"
   y1="1201.573"
   x1="2123.502"
   stroke-miterlimit="10"
   clip-path="url(#SVGID_2_)"
   style="fill:none;stroke:#000000;stroke-width:70;stroke-miterlimit:10" />

	<path
   id="path285"
   d="m 2156.477,1172.106 c 0,18.211 -14.763,32.975 -32.975,32.975 -18.211,0 -32.975,-14.764 -32.975,-32.975 0,-18.211 14.764,-32.975 32.975,-32.975 18.212,10e-4 32.975,14.765 32.975,32.975"
   clip-path="url(#SVGID_2_)"
   inkscape:connector-curvature="0" />

	
		<circle
   id="circle287"
   r="32.974998"
   cy="1172.106"
   cx="2123.502"
   stroke-miterlimit="10"
   clip-path="url(#SVGID_2_)"
   style="fill:none;stroke:#000000;stroke-width:70;stroke-miterlimit:10" />

	<path
   id="path289"
   d="m 2156.477,1656.184 c 0,18.211 -14.763,32.975 -32.975,32.975 -18.211,0 -32.975,-14.764 -32.975,-32.975 0,-18.211 14.764,-32.976 32.975,-32.976 18.212,0 32.975,14.765 32.975,32.976"
   clip-path="url(#SVGID_2_)"
   inkscape:connector-curvature="0" />

	
		<circle
   id="circle291"
   r="32.974998"
   cy="1656.184"
   cx="2123.502"
   stroke-miterlimit="10"
   clip-path="url(#SVGID_2_)"
   style="fill:none;stroke:#000000;stroke-width:70;stroke-miterlimit:10" />

	<path
   id="path293"
   d="M 2392.691,436.857 C 2839.9,425.452 3004.963,690.928 2839.9,989.581"
   stroke-miterlimit="10"
   clip-path="url(#SVGID_2_)"
   inkscape:connector-curvature="0"
   style="fill:none;stroke:#000000;stroke-width:70;stroke-miterlimit:10" />

	<path
   id="path295"
   d="m 2392.691,433.243 c 0,18.211 -14.763,32.975 -32.975,32.975 -18.211,0 -32.975,-14.764 -32.975,-32.975 0,-18.211 14.764,-32.975 32.975,-32.975 18.213,0.001 32.975,14.764 32.975,32.975"
   clip-path="url(#SVGID_2_)"
   inkscape:connector-curvature="0" />

	
		<circle
   id="circle297"
   r="32.974998"
   cy="433.24301"
   cx="2359.717"
   stroke-miterlimit="10"
   clip-path="url(#SVGID_2_)"
   style="fill:none;stroke:#000000;stroke-width:70;stroke-miterlimit:10" />

	<path
   id="path299"
   d="m 2854.118,1006.612 c 0,18.21 -14.763,32.975 -32.975,32.975 -18.211,0 -32.975,-14.765 -32.975,-32.975 0,-18.211 14.764,-32.975 32.975,-32.975 18.212,0 32.975,14.764 32.975,32.975"
   clip-path="url(#SVGID_2_)"
   inkscape:connector-curvature="0" />

	
		<circle
   id="circle301"
   r="32.974998"
   cy="1006.612"
   cx="2821.144"
   stroke-miterlimit="10"
   clip-path="url(#SVGID_2_)"
   style="fill:none;stroke:#000000;stroke-width:70;stroke-miterlimit:10" />

	<path
   id="path303"
   d="m 2742.674,769.69 c 0,170.409 -72.064,283.91 -293.399,278.563"
   stroke-miterlimit="10"
   clip-path="url(#SVGID_2_)"
   inkscape:connector-curvature="0"
   style="fill:none;stroke:#000000;stroke-width:70;stroke-miterlimit:10" />

	<path
   id="path305"
   d="m 2454.226,1048.253 c 0,18.211 -14.763,32.976 -32.975,32.976 -18.211,0 -32.974,-14.765 -32.974,-32.976 0,-18.211 14.763,-32.975 32.974,-32.975 18.211,0 32.975,14.764 32.975,32.975"
   clip-path="url(#SVGID_2_)"
   inkscape:connector-curvature="0" />

	
		<circle
   id="circle307"
   r="32.974998"
   cy="1048.2531"
   cx="2421.251"
   stroke-miterlimit="10"
   clip-path="url(#SVGID_2_)"
   style="fill:none;stroke:#000000;stroke-width:70;stroke-miterlimit:10" />

	<path
   id="path309"
   d="m 2766.308,737.671 c 0,18.211 -14.763,32.976 -32.975,32.976 -18.211,0 -32.975,-14.764 -32.975,-32.976 0,-18.211 14.764,-32.975 32.975,-32.975 18.212,0 32.975,14.764 32.975,32.975"
   clip-path="url(#SVGID_2_)"
   inkscape:connector-curvature="0" />

	
		<circle
   id="circle311"
   r="32.974998"
   cy="737.67102"
   cx="2733.333"
   stroke-miterlimit="10"
   clip-path="url(#SVGID_2_)"
   style="fill:none;stroke:#000000;stroke-width:70;stroke-miterlimit:10" />

	
		<line
   id="line313"
   y2="1193.6379"
   x2="3423.6189"
   y1="442.72601"
   x1="3423.6189"
   stroke-miterlimit="10"
   clip-path="url(#SVGID_2_)"
   style="fill:none;stroke:#000000;stroke-width:70;stroke-miterlimit:10" />

	<path
   id="path315"
   d="m 3423.482,1192.638 c -3.751,314.297 228.838,398.591 412.658,314.297"
   stroke-miterlimit="10"
   clip-path="url(#SVGID_2_)"
   inkscape:connector-curvature="0"
   style="fill:none;stroke:#000000;stroke-width:70;stroke-miterlimit:10" />

	<path
   id="path317"
   d="m 3456.594,424.043 c 0,18.211 -14.764,32.975 -32.975,32.975 -18.211,0 -32.975,-14.764 -32.975,-32.975 0,-18.211 14.764,-32.975 32.975,-32.975 18.211,0 32.975,14.765 32.975,32.975"
   clip-path="url(#SVGID_2_)"
   inkscape:connector-curvature="0" />

	
		<circle
   id="circle319"
   r="32.974998"
   cy="424.043"
   cx="3423.6189"
   stroke-miterlimit="10"
   clip-path="url(#SVGID_2_)"
   style="fill:none;stroke:#000000;stroke-width:70;stroke-miterlimit:10" />

	<path
   id="path321"
   d="m 3855.521,1486.825 c 0,18.211 -14.764,32.976 -32.976,32.976 -18.211,0 -32.974,-14.765 -32.974,-32.976 0,-18.211 14.763,-32.975 32.974,-32.975 18.213,0 32.976,14.764 32.976,32.975"
   clip-path="url(#SVGID_2_)"
   inkscape:connector-curvature="0" />

	
		<circle
   id="circle323"
   r="32.974998"
   cy="1486.825"
   cx="3822.5471"
   stroke-miterlimit="10"
   clip-path="url(#SVGID_2_)"
   style="fill:none;stroke:#000000;stroke-width:70;stroke-miterlimit:10" />

	<path
   id="path325"
   d="m 3258.759,1313.332 c 79.568,514.51 750.287,445.031 816.861,101.364"
   stroke-miterlimit="10"
   clip-path="url(#SVGID_2_)"
   inkscape:connector-curvature="0"
   style="fill:none;stroke:#000000;stroke-width:70;stroke-miterlimit:10" />

	<path
   id="path327"
   d="m 3291.733,1279.081 c 0,18.211 -14.763,32.976 -32.975,32.976 -18.211,0 -32.975,-14.765 -32.975,-32.976 0,-18.211 14.764,-32.975 32.975,-32.975 18.213,0 32.975,14.764 32.975,32.975"
   clip-path="url(#SVGID_2_)"
   inkscape:connector-curvature="0" />

	
		<circle
   id="circle329"
   r="32.974998"
   cy="1279.0811"
   cx="3258.759"
   stroke-miterlimit="10"
   clip-path="url(#SVGID_2_)"
   style="fill:none;stroke:#000000;stroke-width:70;stroke-miterlimit:10" />

	
		<line
   id="line331"
   y2="1073.304"
   x2="4125.7012"
   y1="442.72601"
   x1="4125.7012"
   stroke-miterlimit="10"
   clip-path="url(#SVGID_2_)"
   style="fill:none;stroke:#000000;stroke-width:70;stroke-miterlimit:10" />

	<path
   id="path333"
   d="m 4157.139,424.104 c 0,18.211 -14.764,32.975 -32.976,32.975 -18.211,0 -32.974,-14.764 -32.974,-32.975 0,-18.211 14.763,-32.975 32.974,-32.975 18.212,10e-4 32.976,14.765 32.976,32.975"
   clip-path="url(#SVGID_2_)"
   inkscape:connector-curvature="0" />

	
		<circle
   id="circle335"
   r="32.974998"
   cy="424.104"
   cx="4124.1641"
   stroke-miterlimit="10"
   clip-path="url(#SVGID_2_)"
   style="fill:none;stroke:#000000;stroke-width:70;stroke-miterlimit:10" />

	<path
   id="path337"
   d="m 4101.053,1414.695 c 0,18.211 -14.764,32.976 -32.975,32.976 -18.211,0 -32.975,-14.765 -32.975,-32.976 0,-18.211 14.764,-32.975 32.975,-32.975 18.211,0 32.975,14.764 32.975,32.975"
   clip-path="url(#SVGID_2_)"
   inkscape:connector-curvature="0" />

	
		<circle
   id="circle339"
   r="32.974998"
   cy="1414.6949"
   cx="4068.0779"
   stroke-miterlimit="10"
   clip-path="url(#SVGID_2_)"
   style="fill:none;stroke:#000000;stroke-width:70;stroke-miterlimit:10" />

	
		<line
   id="line341"
   y2="1072.479"
   x2="4161.0239"
   y1="1070.829"
   x1="3936.2009"
   stroke-miterlimit="10"
   clip-path="url(#SVGID_2_)"
   style="fill:none;stroke:#000000;stroke-width:70;stroke-miterlimit:10" />

	<path
   id="path343"
   d="m 3970.29,1071.653 c 8.509,116.903 -1.56,219.485 -21.47,305.33"
   stroke-miterlimit="10"
   clip-path="url(#SVGID_2_)"
   inkscape:connector-curvature="0"
   style="fill:none;stroke:#000000;stroke-width:70;stroke-miterlimit:10" />

	<path
   id="path345"
   d="m 3968.176,1376.983 c 0,18.211 -14.763,32.976 -32.975,32.976 -18.211,0 -32.975,-14.765 -32.975,-32.976 0,-18.211 14.764,-32.975 32.975,-32.975 18.212,10e-4 32.975,14.764 32.975,32.975"
   clip-path="url(#SVGID_2_)"
   inkscape:connector-curvature="0" />

	
		<circle
   id="circle347"
   r="32.974998"
   cy="1376.983"
   cx="3935.2009"
   stroke-miterlimit="10"
   clip-path="url(#SVGID_2_)"
   style="fill:none;stroke:#000000;stroke-width:70;stroke-miterlimit:10" />

	
		<line
   id="line349"
   y2="1088.035"
   x2="3252.531"
   y1="457.45801"
   x1="3252.531"
   stroke-miterlimit="10"
   clip-path="url(#SVGID_2_)"
   style="fill:none;stroke:#000000;stroke-width:70;stroke-miterlimit:10" />

	<path
   id="path351"
   d="m 3285.506,430.955 c 0,18.211 -14.763,32.975 -32.975,32.975 -18.211,0 -32.975,-14.764 -32.975,-32.975 0,-18.211 14.764,-32.975 32.975,-32.975 18.212,-0.001 32.975,14.764 32.975,32.975"
   clip-path="url(#SVGID_2_)"
   inkscape:connector-curvature="0" />

	
		<circle
   id="circle353"
   r="32.974998"
   cy="430.95499"
   cx="3252.531"
   stroke-miterlimit="10"
   clip-path="url(#SVGID_2_)"
   style="fill:none;stroke:#000000;stroke-width:70;stroke-miterlimit:10" />

	<path
   id="path355"
   d="m 3285.506,1108.426 c 0,18.211 -14.763,32.975 -32.975,32.975 -18.211,0 -32.975,-14.764 -32.975,-32.975 0,-18.211 14.764,-32.975 32.975,-32.975 18.212,0 32.975,14.764 32.975,32.975"
   clip-path="url(#SVGID_2_)"
   inkscape:connector-curvature="0" />

	
		<circle
   id="circle357"
   r="32.974998"
   cy="1108.426"
   cx="3252.531"
   stroke-miterlimit="10"
   clip-path="url(#SVGID_2_)"
   style="fill:none;stroke:#000000;stroke-width:70;stroke-miterlimit:10" />

	
		<line
   id="line359"
   y2="901.13898"
   x2="3971.29"
   y1="450.42401"
   x1="3971.29"
   stroke-miterlimit="10"
   clip-path="url(#SVGID_2_)"
   style="fill:none;stroke:#000000;stroke-width:70;stroke-miterlimit:10" />

	<path
   id="path361"
   d="m 4002.728,423.982 c 0,18.211 -14.764,32.975 -32.976,32.975 -18.211,0 -32.974,-14.764 -32.974,-32.975 0,-18.211 14.763,-32.975 32.974,-32.975 18.212,0 32.976,14.764 32.976,32.975"
   clip-path="url(#SVGID_2_)"
   inkscape:connector-curvature="0" />

	
		<circle
   id="circle363"
   r="32.974998"
   cy="423.98199"
   cx="3969.7529"
   stroke-miterlimit="10"
   clip-path="url(#SVGID_2_)"
   style="fill:none;stroke:#000000;stroke-width:70;stroke-miterlimit:10" />

	<path
   id="path365"
   d="m 4004.265,934.576 c 0,18.211 -14.764,32.975 -32.976,32.975 -18.211,0 -32.974,-14.764 -32.974,-32.975 0,-18.211 14.763,-32.975 32.974,-32.975 18.212,10e-4 32.976,14.764 32.976,32.975"
   clip-path="url(#SVGID_2_)"
   inkscape:connector-curvature="0" />

	
		<circle
   id="circle367"
   r="32.974998"
   cy="934.57599"
   cx="3971.29"
   stroke-miterlimit="10"
   clip-path="url(#SVGID_2_)"
   style="fill:none;stroke:#000000;stroke-width:70;stroke-miterlimit:10" />

</g>
    <text
       xml:space="preserve"
       style="font-size:8.46666622px;line-height:1.25;font-family:sans-serif;letter-spacing:0px;word-spacing:0px;stroke-width:0.26458332"
       x="314.20267"
       y="678.07208"
       id="text480"><tspan
         sodipodi:role="line"
         id="tspan478"
         x="314.20267"
         y="678.07208"
         style="font-style:normal;font-variant:normal;font-weight:bold;font-stretch:normal;font-size:88.19445038px;font-family:'Ubuntu Mono';-inkscape-font-specification:'Ubuntu Mono Bold';stroke-width:0.26458332">choate programming union</tspan></text>
  </g>
</svg>
